<svg width="560" height="560" viewBox="0 0 560 560" fill="none" xmlns="http://www.w3.org/2000/svg">
<g clip-path="url(#clip0)">
<rect width="560" height="560" rx="30" fill="white"/>
<rect x="-278.815" y="278.815" width="792.832" height="792.832" transform="rotate(-45 -278.815 278.815)" fill="url(#paint0_linear)"/>
<path d="M262.2 475.8C260.867 475.8 260.2 475.133 260.2 473.8C260.2 472.467 260.867 471.8 262.2 471.8C263.533 471.8 264.2 472.467 264.2 473.8C264.2 475.133 263.533 475.8 262.2 475.8ZM262.2 484C260.867 484 260.2 483.333 260.2 482C260.2 480.667 260.867 480 262.2 480C263.533 480 264.2 480.667 264.2 482C264.2 483.333 263.533 484 262.2 484ZM262.2 492.2C260.867 492.2 260.2 491.533 260.2 490.2C260.2 488.867 260.867 488.2 262.2 488.2C263.533 488.2 264.2 488.867 264.2 490.2C264.2 491.533 263.533 492.2 262.2 492.2ZM262.2 500.4C260.867 500.4 260.2 499.733 260.2 498.4C260.2 497.067 260.867 496.4 262.2 496.4C263.533 496.4 264.2 497.067 264.2 498.4C264.2 499.733 263.533 500.4 262.2 500.4ZM262.2 412.2C260.867 412.2 260.2 411.533 260.2 410.2C260.2 408.867 260.867 408.2 262.2 408.2C263.533 408.2 264.2 408.867 264.2 410.2C264.2 411.533 263.533 412.2 262.2 412.2ZM262.2 420C260.867 420 260.2 419.333 260.2 418C260.2 416.667 260.867 416 262.2 416C263.533 416 264.2 416.667 264.2 418C264.2 419.333 263.533 420 262.2 420ZM262.2 428.6C260.867 428.6 260.2 427.933 260.2 426.6C260.2 425.267 260.867 424.6 262.2 424.6C263.533 424.6 264.2 425.267 264.2 426.6C264.2 427.933 263.533 428.6 262.2 428.6ZM262.2 444.6C260.867 444.6 260.2 443.933 260.2 442.6C260.2 441.267 260.867 440.6 262.2 440.6C263.533 440.6 264.2 441.267 264.2 442.6C264.2 443.933 263.533 444.6 262.2 444.6ZM262.2 452C260.867 452 260.2 451.333 260.2 450C260.2 448.667 260.867 448 262.2 448C263.533 448 264.2 448.667 264.2 450C264.2 451.333 263.533 452 262.2 452ZM262.2 460C260.867 460 260.2 459.333 260.2 458C260.2 456.667 260.867 456 262.2 456C263.533 456 264.2 456.667 264.2 458C264.2 459.333 263.533 460 262.2 460ZM262.2 468C260.867 468 260.2 467.333 260.2 466C260.2 464.667 260.867 464 262.2 464C263.533 464 264.2 464.667 264.2 466C264.2 467.333 263.533 468 262.2 468ZM262.2 382C260.867 382 260.2 381.333 260.2 380C260.2 378.667 260.867 378 262.2 378C263.533 378 264.2 378.667 264.2 380C264.2 381.333 263.533 382 262.2 382ZM262.2 389.4C260.867 389.4 260.2 388.733 260.2 387.4C260.2 386.067 260.867 385.4 262.2 385.4C263.533 385.4 264.2 386.067 264.2 387.4C264.2 388.733 263.533 389.4 262.2 389.4ZM262.2 397C260.867 397 260.2 396.333 260.2 395C260.2 393.667 260.867 393 262.2 393C263.533 393 264.2 393.667 264.2 395C264.2 396.333 263.533 397 262.2 397ZM262.2 404.2C260.867 404.2 260.2 403.533 260.2 402.2C260.2 400.867 260.867 400.2 262.2 400.2C263.533 400.2 264.2 400.867 264.2 402.2C264.2 403.533 263.533 404.2 262.2 404.2ZM262.2 436.6C260.867 436.6 260.2 435.933 260.2 434.6C260.2 433.267 260.867 432.6 262.2 432.6C263.533 432.6 264.2 433.267 264.2 434.6C264.2 435.933 263.533 436.6 262.2 436.6ZM262.2 508.4C260.867 508.4 260.2 507.733 260.2 506.4C260.2 505.067 260.867 504.4 262.2 504.4C263.533 504.4 264.2 505.067 264.2 506.4C264.2 507.733 263.533 508.4 262.2 508.4ZM262.2 516.4C260.867 516.4 260.2 515.733 260.2 514.4C260.2 513.067 260.867 512.4 262.2 512.4C263.533 512.4 264.2 513.067 264.2 514.4C264.2 515.733 263.533 516.4 262.2 516.4ZM268.8 516.8C267.467 516.8 266.8 516.133 266.8 514.8C266.8 513.467 267.467 512.8 268.8 512.8C270.133 512.8 270.8 513.467 270.8 514.8C270.8 516.133 270.133 516.8 268.8 516.8ZM275.8 516.8C274.467 516.8 273.8 516.133 273.8 514.8C273.8 513.467 274.467 512.8 275.8 512.8C277.133 512.8 277.8 513.467 277.8 514.8C277.8 516.133 277.133 516.8 275.8 516.8ZM282.8 516.8C281.467 516.8 280.8 516.133 280.8 514.8C280.8 513.467 281.467 512.8 282.8 512.8C284.133 512.8 284.8 513.467 284.8 514.8C284.8 516.133 284.133 516.8 282.8 516.8ZM289.8 516.8C288.467 516.8 287.8 516.133 287.8 514.8C287.8 513.467 288.467 512.8 289.8 512.8C291.133 512.8 291.8 513.467 291.8 514.8C291.8 516.133 291.133 516.8 289.8 516.8ZM297.2 516.8C295.867 516.8 295.2 516.133 295.2 514.8C295.2 513.467 295.867 512.8 297.2 512.8C298.533 512.8 299.2 513.467 299.2 514.8C299.2 516.133 298.533 516.8 297.2 516.8ZM304.8 516.8C303.467 516.8 302.8 516.133 302.8 514.8C302.8 513.467 303.467 512.8 304.8 512.8C306.133 512.8 306.8 513.467 306.8 514.8C306.8 516.133 306.133 516.8 304.8 516.8ZM312.4 516.6C311.067 516.6 310.4 515.933 310.4 514.6C310.4 513.267 311.067 512.6 312.4 512.6C313.733 512.6 314.4 513.267 314.4 514.6C314.4 515.933 313.733 516.6 312.4 516.6ZM320.2 515.6C318.867 515.6 318.2 514.933 318.2 513.6C318.2 512.267 318.867 511.6 320.2 511.6C321.533 511.6 322.2 512.267 322.2 513.6C322.2 514.933 321.533 515.6 320.2 515.6ZM328.6 513.6C327.267 513.6 326.6 512.933 326.6 511.6C326.6 510.267 327.267 509.6 328.6 509.6C329.933 509.6 330.6 510.267 330.6 511.6C330.6 512.933 329.933 513.6 328.6 513.6ZM268.8 381.4C267.467 381.4 266.8 380.733 266.8 379.4C266.8 378.067 267.467 377.4 268.8 377.4C270.133 377.4 270.8 378.067 270.8 379.4C270.8 380.733 270.133 381.4 268.8 381.4ZM275.8 381.4C274.467 381.4 273.8 380.733 273.8 379.4C273.8 378.067 274.467 377.4 275.8 377.4C277.133 377.4 277.8 378.067 277.8 379.4C277.8 380.733 277.133 381.4 275.8 381.4ZM282.8 381.4C281.467 381.4 280.8 380.733 280.8 379.4C280.8 378.067 281.467 377.4 282.8 377.4C284.133 377.4 284.8 378.067 284.8 379.4C284.8 380.733 284.133 381.4 282.8 381.4ZM289.8 381.4C288.467 381.4 287.8 380.733 287.8 379.4C287.8 378.067 288.467 377.4 289.8 377.4C291.133 377.4 291.8 378.067 291.8 379.4C291.8 380.733 291.133 381.4 289.8 381.4ZM296.8 381.4C295.467 381.4 294.8 380.733 294.8 379.4C294.8 378.067 295.467 377.4 296.8 377.4C298.133 377.4 298.8 378.067 298.8 379.4C298.8 380.733 298.133 381.4 296.8 381.4ZM303.8 381.4C302.467 381.4 301.8 380.733 301.8 379.4C301.8 378.067 302.467 377.4 303.8 377.4C305.133 377.4 305.8 378.067 305.8 379.4C305.8 380.733 305.133 381.4 303.8 381.4ZM310.8 381.6C309.467 381.6 308.8 380.933 308.8 379.6C308.8 378.267 309.467 377.6 310.8 377.6C312.133 377.6 312.8 378.267 312.8 379.6C312.8 380.933 312.133 381.6 310.8 381.6ZM317.8 382.2C316.467 382.2 315.8 381.533 315.8 380.2C315.8 378.867 316.467 378.2 317.8 378.2C319.133 378.2 319.8 378.867 319.8 380.2C319.8 381.533 319.133 382.2 317.8 382.2ZM324.8 383.4C323.467 383.4 322.8 382.733 322.8 381.4C322.8 380.067 323.467 379.4 324.8 379.4C326.133 379.4 326.8 380.067 326.8 381.4C326.8 382.733 326.133 383.4 324.8 383.4ZM336.2 510.4C334.867 510.4 334.2 509.733 334.2 508.4C334.2 507.067 334.867 506.4 336.2 506.4C337.533 506.4 338.2 507.067 338.2 508.4C338.2 509.733 337.533 510.4 336.2 510.4ZM331.6 385.8C330.267 385.8 329.6 385.133 329.6 383.8C329.6 382.467 330.267 381.8 331.6 381.8C332.933 381.8 333.6 382.467 333.6 383.8C333.6 385.133 332.933 385.8 331.6 385.8ZM337.8 388.8C336.467 388.8 335.8 388.133 335.8 386.8C335.8 385.467 336.467 384.8 337.8 384.8C339.133 384.8 339.8 385.467 339.8 386.8C339.8 388.133 339.133 388.8 337.8 388.8ZM344 392.6C342.667 392.6 342 391.933 342 390.6C342 389.267 342.667 388.6 344 388.6C345.333 388.6 346 389.267 346 390.6C346 391.933 345.333 392.6 344 392.6ZM349.4 397.4C348.067 397.4 347.4 396.733 347.4 395.4C347.4 394.067 348.067 393.4 349.4 393.4C350.733 393.4 351.4 394.067 351.4 395.4C351.4 396.733 350.733 397.4 349.4 397.4ZM354.2 403C352.867 403 352.2 402.333 352.2 401C352.2 399.667 352.867 399 354.2 399C355.533 399 356.2 399.667 356.2 401C356.2 402.333 355.533 403 354.2 403ZM358.6 408.8C357.267 408.8 356.6 408.133 356.6 406.8C356.6 405.467 357.267 404.8 358.6 404.8C359.933 404.8 360.6 405.467 360.6 406.8C360.6 408.133 359.933 408.8 358.6 408.8ZM361.8 415.4C360.467 415.4 359.8 414.733 359.8 413.4C359.8 412.067 360.467 411.4 361.8 411.4C363.133 411.4 363.8 412.067 363.8 413.4C363.8 414.733 363.133 415.4 361.8 415.4ZM364.2 422.4C362.867 422.4 362.2 421.733 362.2 420.4C362.2 419.067 362.867 418.4 364.2 418.4C365.533 418.4 366.2 419.067 366.2 420.4C366.2 421.733 365.533 422.4 364.2 422.4ZM366.2 429.4C364.867 429.4 364.2 428.733 364.2 427.4C364.2 426.067 364.867 425.4 366.2 425.4C367.533 425.4 368.2 426.067 368.2 427.4C368.2 428.733 367.533 429.4 366.2 429.4ZM367.8 436.4C366.467 436.4 365.8 435.733 365.8 434.4C365.8 433.067 366.467 432.4 367.8 432.4C369.133 432.4 369.8 433.067 369.8 434.4C369.8 435.733 369.133 436.4 367.8 436.4ZM368.6 443.8C367.267 443.8 366.6 443.133 366.6 441.8C366.6 440.467 367.267 439.8 368.6 439.8C369.933 439.8 370.6 440.467 370.6 441.8C370.6 443.133 369.933 443.8 368.6 443.8ZM368.8 451.6C367.467 451.6 366.8 450.933 366.8 449.6C366.8 448.267 367.467 447.6 368.8 447.6C370.133 447.6 370.8 448.267 370.8 449.6C370.8 450.933 370.133 451.6 368.8 451.6ZM368.6 459C367.267 459 366.6 458.333 366.6 457C366.6 455.667 367.267 455 368.6 455C369.933 455 370.6 455.667 370.6 457C370.6 458.333 369.933 459 368.6 459ZM367.6 466C366.267 466 365.6 465.333 365.6 464C365.6 462.667 366.267 462 367.6 462C368.933 462 369.6 462.667 369.6 464C369.6 465.333 368.933 466 367.6 466ZM365.8 473.4C364.467 473.4 363.8 472.733 363.8 471.4C363.8 470.067 364.467 469.4 365.8 469.4C367.133 469.4 367.8 470.067 367.8 471.4C367.8 472.733 367.133 473.4 365.8 473.4ZM363 480.8C361.667 480.8 361 480.133 361 478.8C361 477.467 361.667 476.8 363 476.8C364.333 476.8 365 477.467 365 478.8C365 480.133 364.333 480.8 363 480.8ZM359.4 487.6C358.067 487.6 357.4 486.933 357.4 485.6C357.4 484.267 358.067 483.6 359.4 483.6C360.733 483.6 361.4 484.267 361.4 485.6C361.4 486.933 360.733 487.6 359.4 487.6ZM355.2 495C353.867 495 353.2 494.333 353.2 493C353.2 491.667 353.867 491 355.2 491C356.533 491 357.2 491.667 357.2 493C357.2 494.333 356.533 495 355.2 495ZM349.6 501.2C348.267 501.2 347.6 500.533 347.6 499.2C347.6 497.867 348.267 497.2 349.6 497.2C350.933 497.2 351.6 497.867 351.6 499.2C351.6 500.533 350.933 501.2 349.6 501.2ZM343.2 506.2C341.867 506.2 341.2 505.533 341.2 504.2C341.2 502.867 341.867 502.2 343.2 502.2C344.533 502.2 345.2 502.867 345.2 504.2C345.2 505.533 344.533 506.2 343.2 506.2Z" fill="white"/>
<path d="M497.6 390.8C498.933 390.8 499.6 391.467 499.6 392.8C499.6 394.133 498.933 394.8 497.6 394.8C496.267 394.8 495.6 394.133 495.6 392.8C495.6 391.467 496.267 390.8 497.6 390.8ZM491.4 385.4C492.733 385.4 493.4 386.067 493.4 387.4C493.4 388.733 492.733 389.4 491.4 389.4C490.067 389.4 489.4 388.733 489.4 387.4C489.4 386.067 490.067 385.4 491.4 385.4ZM484 381.2C485.333 381.2 486 381.867 486 383.2C486 384.533 485.333 385.2 484 385.2C482.667 385.2 482 384.533 482 383.2C482 381.867 482.667 381.2 484 381.2ZM476.4 378.4C477.733 378.4 478.4 379.067 478.4 380.4C478.4 381.733 477.733 382.4 476.4 382.4C475.067 382.4 474.4 381.733 474.4 380.4C474.4 379.067 475.067 378.4 476.4 378.4ZM468.6 376.4C469.933 376.4 470.6 377.067 470.6 378.4C470.6 379.733 469.933 380.4 468.6 380.4C467.267 380.4 466.6 379.733 466.6 378.4C466.6 377.067 467.267 376.4 468.6 376.4ZM460.6 375.6C461.933 375.6 462.6 376.267 462.6 377.6C462.6 378.933 461.933 379.6 460.6 379.6C459.267 379.6 458.6 378.933 458.6 377.6C458.6 376.267 459.267 375.6 460.6 375.6ZM452.6 375.8C453.933 375.8 454.6 376.467 454.6 377.8C454.6 379.133 453.933 379.8 452.6 379.8C451.267 379.8 450.6 379.133 450.6 377.8C450.6 376.467 451.267 375.8 452.6 375.8ZM444.6 376.8C445.933 376.8 446.6 377.467 446.6 378.8C446.6 380.133 445.933 380.8 444.6 380.8C443.267 380.8 442.6 380.133 442.6 378.8C442.6 377.467 443.267 376.8 444.6 376.8ZM436.2 378.6C437.533 378.6 438.2 379.267 438.2 380.6C438.2 381.933 437.533 382.6 436.2 382.6C434.867 382.6 434.2 381.933 434.2 380.6C434.2 379.267 434.867 378.6 436.2 378.6ZM428.4 382C429.733 382 430.4 382.667 430.4 384C430.4 385.333 429.733 386 428.4 386C427.067 386 426.4 385.333 426.4 384C426.4 382.667 427.067 382 428.4 382ZM411.2 416.8C412.533 416.8 413.2 417.467 413.2 418.8C413.2 420.133 412.533 420.8 411.2 420.8C409.867 420.8 409.2 420.133 409.2 418.8C409.2 417.467 409.867 416.8 411.2 416.8ZM410.8 408.2C412.133 408.2 412.8 408.867 412.8 410.2C412.8 411.533 412.133 412.2 410.8 412.2C409.467 412.2 408.8 411.533 408.8 410.2C408.8 408.867 409.467 408.2 410.8 408.2ZM412.6 400.4C413.933 400.4 414.6 401.067 414.6 402.4C414.6 403.733 413.933 404.4 412.6 404.4C411.267 404.4 410.6 403.733 410.6 402.4C410.6 401.067 411.267 400.4 412.6 400.4ZM416.2 393C417.533 393 418.2 393.667 418.2 395C418.2 396.333 417.533 397 416.2 397C414.867 397 414.2 396.333 414.2 395C414.2 393.667 414.867 393 416.2 393ZM421.6 386.8C422.933 386.8 423.6 387.467 423.6 388.8C423.6 390.133 422.933 390.8 421.6 390.8C420.267 390.8 419.6 390.133 419.6 388.8C419.6 387.467 420.267 386.8 421.6 386.8ZM413.8 424.6C415.133 424.6 415.8 425.267 415.8 426.6C415.8 427.933 415.133 428.6 413.8 428.6C412.467 428.6 411.8 427.933 411.8 426.6C411.8 425.267 412.467 424.6 413.8 424.6ZM419 431.2C420.333 431.2 421 431.867 421 433.2C421 434.533 420.333 435.2 419 435.2C417.667 435.2 417 434.533 417 433.2C417 431.867 417.667 431.2 419 431.2ZM425.8 436C427.133 436 427.8 436.667 427.8 438C427.8 439.333 427.133 440 425.8 440C424.467 440 423.8 439.333 423.8 438C423.8 436.667 424.467 436 425.8 436ZM433.2 439C434.533 439 435.2 439.667 435.2 441C435.2 442.333 434.533 443 433.2 443C431.867 443 431.2 442.333 431.2 441C431.2 439.667 431.867 439 433.2 439ZM441.4 441.2C442.733 441.2 443.4 441.867 443.4 443.2C443.4 444.533 442.733 445.2 441.4 445.2C440.067 445.2 439.4 444.533 439.4 443.2C439.4 441.867 440.067 441.2 441.4 441.2ZM449.6 443C450.933 443 451.6 443.667 451.6 445C451.6 446.333 450.933 447 449.6 447C448.267 447 447.6 446.333 447.6 445C447.6 443.667 448.267 443 449.6 443ZM457.6 444.8C458.933 444.8 459.6 445.467 459.6 446.8C459.6 448.133 458.933 448.8 457.6 448.8C456.267 448.8 455.6 448.133 455.6 446.8C455.6 445.467 456.267 444.8 457.6 444.8ZM465.8 446.6C467.133 446.6 467.8 447.267 467.8 448.6C467.8 449.933 467.133 450.6 465.8 450.6C464.467 450.6 463.8 449.933 463.8 448.6C463.8 447.267 464.467 446.6 465.8 446.6ZM474 448.4C475.333 448.4 476 449.067 476 450.4C476 451.733 475.333 452.4 474 452.4C472.667 452.4 472 451.733 472 450.4C472 449.067 472.667 448.4 474 448.4ZM481.8 451.2C483.133 451.2 483.8 451.867 483.8 453.2C483.8 454.533 483.133 455.2 481.8 455.2C480.467 455.2 479.8 454.533 479.8 453.2C479.8 451.867 480.467 451.2 481.8 451.2ZM489.2 454.6C490.533 454.6 491.2 455.267 491.2 456.6C491.2 457.933 490.533 458.6 489.2 458.6C487.867 458.6 487.2 457.933 487.2 456.6C487.2 455.267 487.867 454.6 489.2 454.6ZM496 459.2C497.333 459.2 498 459.867 498 461.2C498 462.533 497.333 463.2 496 463.2C494.667 463.2 494 462.533 494 461.2C494 459.867 494.667 459.2 496 459.2ZM501.4 465.2C502.733 465.2 503.4 465.867 503.4 467.2C503.4 468.533 502.733 469.2 501.4 469.2C500.067 469.2 499.4 468.533 499.4 467.2C499.4 465.867 500.067 465.2 501.4 465.2ZM504.6 472.6C505.933 472.6 506.6 473.267 506.6 474.6C506.6 475.933 505.933 476.6 504.6 476.6C503.267 476.6 502.6 475.933 502.6 474.6C502.6 473.267 503.267 472.6 504.6 472.6ZM505.6 480.4C506.933 480.4 507.6 481.067 507.6 482.4C507.6 483.733 506.933 484.4 505.6 484.4C504.267 484.4 503.6 483.733 503.6 482.4C503.6 481.067 504.267 480.4 505.6 480.4ZM504.8 488.2C506.133 488.2 506.8 488.867 506.8 490.2C506.8 491.533 506.133 492.2 504.8 492.2C503.467 492.2 502.8 491.533 502.8 490.2C502.8 488.867 503.467 488.2 504.8 488.2ZM502.4 495.6C503.733 495.6 504.4 496.267 504.4 497.6C504.4 498.933 503.733 499.6 502.4 499.6C501.067 499.6 500.4 498.933 500.4 497.6C500.4 496.267 501.067 495.6 502.4 495.6ZM498.2 502C499.533 502 500.2 502.667 500.2 504C500.2 505.333 499.533 506 498.2 506C496.867 506 496.2 505.333 496.2 504C496.2 502.667 496.867 502 498.2 502ZM492.4 507.2C493.733 507.2 494.4 507.867 494.4 509.2C494.4 510.533 493.733 511.2 492.4 511.2C491.067 511.2 490.4 510.533 490.4 509.2C490.4 507.867 491.067 507.2 492.4 507.2ZM485.2 510.4C486.533 510.4 487.2 511.067 487.2 512.4C487.2 513.733 486.533 514.4 485.2 514.4C483.867 514.4 483.2 513.733 483.2 512.4C483.2 511.067 483.867 510.4 485.2 510.4ZM477.8 512.6C479.133 512.6 479.8 513.267 479.8 514.6C479.8 515.933 479.133 516.6 477.8 516.6C476.467 516.6 475.8 515.933 475.8 514.6C475.8 513.267 476.467 512.6 477.8 512.6ZM470.4 514.2C471.733 514.2 472.4 514.867 472.4 516.2C472.4 517.533 471.733 518.2 470.4 518.2C469.067 518.2 468.4 517.533 468.4 516.2C468.4 514.867 469.067 514.2 470.4 514.2ZM462.8 515.2C464.133 515.2 464.8 515.867 464.8 517.2C464.8 518.533 464.133 519.2 462.8 519.2C461.467 519.2 460.8 518.533 460.8 517.2C460.8 515.867 461.467 515.2 462.8 515.2ZM455 514.8C456.333 514.8 457 515.467 457 516.8C457 518.133 456.333 518.8 455 518.8C453.667 518.8 453 518.133 453 516.8C453 515.467 453.667 514.8 455 514.8ZM447.2 514C448.533 514 449.2 514.667 449.2 516C449.2 517.333 448.533 518 447.2 518C445.867 518 445.2 517.333 445.2 516C445.2 514.667 445.867 514 447.2 514ZM439.6 512.2C440.933 512.2 441.6 512.867 441.6 514.2C441.6 515.533 440.933 516.2 439.6 516.2C438.267 516.2 437.6 515.533 437.6 514.2C437.6 512.867 438.267 512.2 439.6 512.2ZM432.4 510C433.733 510 434.4 510.667 434.4 512C434.4 513.333 433.733 514 432.4 514C431.067 514 430.4 513.333 430.4 512C430.4 510.667 431.067 510 432.4 510ZM425.4 507.2C426.733 507.2 427.4 507.867 427.4 509.2C427.4 510.533 426.733 511.2 425.4 511.2C424.067 511.2 423.4 510.533 423.4 509.2C423.4 507.867 424.067 507.2 425.4 507.2ZM418.8 503.6C420.133 503.6 420.8 504.267 420.8 505.6C420.8 506.933 420.133 507.6 418.8 507.6C417.467 507.6 416.8 506.933 416.8 505.6C416.8 504.267 417.467 503.6 418.8 503.6ZM412.4 499.2C413.733 499.2 414.4 499.867 414.4 501.2C414.4 502.533 413.733 503.2 412.4 503.2C411.067 503.2 410.4 502.533 410.4 501.2C410.4 499.867 411.067 499.2 412.4 499.2ZM406.2 493.8C407.533 493.8 408.2 494.467 408.2 495.8C408.2 497.133 407.533 497.8 406.2 497.8C404.867 497.8 404.2 497.133 404.2 495.8C404.2 494.467 404.867 493.8 406.2 493.8Z" fill="white"/>
</g>
<defs>
<linearGradient id="paint0_linear" x1="117.601" y1="278.815" x2="117.601" y2="1071.65" gradientUnits="userSpaceOnUse">
<stop stop-color="#DF7134"/>
<stop offset="1" stop-color="#B4308C"/>
</linearGradient>
<clipPath id="clip0">
<rect width="560" height="560" rx="30" fill="white"/>
</clipPath>
</defs>
</svg>
